<svg xmlns="http://www.w3.org/2000/svg" version="1" viewBox="0 0 916 220"><path d="M278 134h33c1 8 7 16 20 16s19-5 19-11c0-21-67-2-67-50 0-21 19-39 49-39 36 0 48 23 49 40h-31c-1-7-7-14-19-14-10 0-16 5-16 12 0 20 67 0 67 49 0 22-19 39-52 39-38 0-50-19-52-42zM425 52V24h-33v149h33V79h24V52z"/><path d="M476 122c2 17 12 26 29 26 10 0 19-5 23-13h33c-7 24-29 41-57 41-36 0-61-26-61-63 0-36 25-63 61-63s60 27 60 63l-1 9h-87zm0-23h55c-3-14-12-23-28-23-15 0-24 9-27 23zM606 67c6-10 18-17 36-17 29 0 45 19 45 48v75h-33v-72c0-14-6-23-21-23-16 0-24 10-24 26v69h-33V52h30v15zM759 50c38 0 56 26 58 47h-34c-2-11-12-18-24-18-17 0-28 14-28 34s11 34 28 34c12 0 22-8 24-18h34c-2 20-20 47-58 47-35 0-60-27-60-63s25-63 60-63zM826 23c0-11 8-19 20-19 11 0 19 8 19 19s-8 20-20 20c-11 0-19-8-19-20zm3 29h33v121h-33V52zM880 173V11h32v162h-32z"/><g><path d="M145 2H78C37 2 4 36 4 76v68c0 40 33 74 74 74h67c41 0 74-34 74-74V76c0-40-33-74-74-74zm17 143c0 11-17 20-28 20H89c-12 0-28-9-28-20v-2h101v2zm0-24H89c-12 0-28-9-28-21v-1h73c11 0 28 9 28 21v1zm0-44H61v-2c0-11 16-20 28-20h45c11 0 28 9 28 21v1z"/></g></svg>
